<?xml version="1.0" encoding="UTF-8" ?>
<!DOCTYPE svg PUBLIC "-//W3C//DTD SVG 1.1//EN" "http://www.w3.org/Graphics/SVG/1.1/DTD/svg11.dtd">
<svg width="800pt" height="600pt" viewBox="0 0 800 600" version="1.1" xmlns="http://www.w3.org/2000/svg">
<path fill="#ffffff" d=" M 0.00 0.00 L 800.00 0.00 L 800.00 600.00 L 0.00 600.00 L 0.00 0.00 Z" />
<path fill="#000000" d=" M 275.51 22.24 C 286.51 22.01 297.69 21.76 308.41 24.68 C 314.80 25.71 321.52 24.88 327.53 27.85 L 327.66 28.90 L 329.32 28.25 C 329.33 28.60 329.35 29.32 329.37 29.67 L 330.54 29.41 L 330.77 30.15 C 333.24 31.26 335.58 32.62 337.97 33.89 C 338.70 34.17 339.45 34.46 340.19 34.74 C 340.56 35.46 340.93 36.19 341.32 36.91 C 342.09 46.61 341.82 56.35 341.87 66.07 C 341.83 74.81 342.12 83.59 341.01 92.28 C 340.69 97.52 340.97 102.78 340.56 108.02 C 339.05 122.33 340.54 136.76 339.45 151.10 C 339.22 153.73 338.80 156.36 338.85 159.01 C 338.88 176.68 338.86 194.35 338.87 212.02 C 338.87 217.65 338.59 223.28 337.94 228.88 C 337.81 236.07 337.89 243.27 337.36 250.46 C 336.69 251.29 336.02 252.11 335.35 252.94 C 335.41 253.29 335.53 254.00 335.59 254.35 L 334.29 254.56 C 334.36 255.01 334.50 255.93 334.57 256.38 L 333.27 256.57 C 333.30 256.87 333.36 257.46 333.39 257.76 C 332.20 258.79 331.06 259.86 329.90 260.93 C 325.26 263.83 322.15 268.70 316.99 270.88 C 313.80 272.78 310.69 274.83 307.84 277.20 C 296.65 278.16 285.35 278.11 274.15 277.29 C 273.36 276.46 272.55 275.65 271.73 274.85 C 271.64 274.68 271.47 274.35 271.38 274.18 C 268.15 270.15 267.34 264.97 265.91 260.16 C 265.53 259.15 265.13 258.15 264.73 257.16 C 264.55 256.03 264.39 254.90 264.23 253.77 C 263.63 251.79 263.00 249.82 262.36 247.86 C 261.82 246.64 261.32 245.41 260.78 244.20 C 260.38 241.93 259.86 239.68 259.37 237.43 L 258.38 237.36 C 258.48 236.92 258.67 236.04 258.76 235.60 L 257.43 235.37 C 257.49 234.93 257.63 234.05 257.69 233.61 L 257.02 233.27 C 256.25 231.70 255.35 230.19 254.18 228.90 C 252.40 226.67 251.98 223.79 251.09 221.17 C 249.58 219.39 248.52 217.32 247.74 215.14 C 247.09 213.46 246.42 211.78 245.73 210.13 C 243.68 205.37 244.46 200.04 244.14 195.00 C 244.22 185.31 243.83 175.60 244.68 165.93 C 246.43 152.70 247.41 139.38 248.07 126.06 C 248.23 103.70 248.07 81.34 248.15 58.97 C 248.19 54.49 248.46 50.01 248.80 45.53 C 250.41 45.45 252.01 45.38 253.62 45.33 C 253.66 42.53 253.67 39.74 253.70 36.94 C 254.17 35.95 254.62 34.96 255.06 33.96 C 256.29 32.71 257.50 31.43 258.70 30.16 C 258.65 29.87 258.54 29.30 258.49 29.01 C 260.83 27.39 263.32 25.91 265.24 23.77 C 268.44 22.24 272.05 22.40 275.51 22.24 Z" />
<path fill="#000000" d=" M 92.95 34.51 C 103.85 32.51 114.97 33.30 125.99 33.13 C 141.64 33.30 157.31 32.77 172.95 33.48 C 179.35 34.37 185.92 34.66 192.08 36.81 C 193.14 37.18 194.21 37.51 195.29 37.80 C 196.91 39.01 198.49 40.27 200.06 41.54 C 200.40 41.54 201.07 41.52 201.40 41.52 L 201.64 42.81 C 202.08 42.69 202.96 42.44 203.40 42.32 L 203.37 43.09 C 207.80 46.71 212.64 50.51 214.80 55.99 C 216.67 58.90 218.67 61.74 220.27 64.82 C 221.22 66.21 222.30 67.52 223.43 68.78 C 226.14 75.15 227.75 82.02 227.74 88.96 C 228.40 102.07 226.06 115.04 224.51 128.00 C 223.97 133.41 222.21 138.59 220.79 143.81 C 219.06 150.24 218.57 156.89 218.31 163.51 L 217.72 163.53 C 216.96 165.65 216.11 167.75 215.15 169.79 C 211.31 173.76 209.09 179.18 204.24 182.21 C 202.32 183.34 200.91 185.07 199.98 187.08 C 197.63 189.14 194.98 190.83 192.23 192.30 C 190.33 193.47 188.50 194.75 186.78 196.17 C 186.58 196.25 186.19 196.42 185.99 196.51 C 185.58 196.98 184.78 197.92 184.37 198.40 C 183.82 198.61 182.72 199.03 182.17 199.24 C 180.49 199.85 178.83 200.50 177.24 201.32 C 173.78 203.20 169.89 203.98 166.16 205.12 C 164.09 205.78 162.04 206.48 160.04 207.31 C 149.72 208.18 139.35 207.80 129.00 207.84 C 121.67 207.90 114.42 206.70 107.11 206.48 C 100.97 205.55 94.71 205.16 88.76 203.28 C 87.53 202.75 86.27 202.26 85.03 201.76 C 83.62 201.23 82.23 200.66 80.83 200.12 C 78.32 199.33 75.71 198.84 73.09 198.61 C 66.16 198.15 59.64 195.22 52.64 195.30 C 49.96 191.09 48.83 186.22 47.31 181.52 L 46.43 181.36 C 46.50 180.92 46.65 180.02 46.73 179.57 L 45.42 179.39 C 45.50 178.94 45.66 178.04 45.73 177.59 L 44.39 177.35 C 44.48 176.92 44.65 176.05 44.74 175.62 C 44.50 175.56 44.03 175.42 43.79 175.36 C 43.12 173.64 42.47 171.91 41.82 170.18 C 41.51 169.17 41.19 168.17 40.85 167.17 C 39.28 161.79 38.21 156.30 37.22 150.79 C 35.81 145.97 34.66 141.08 33.65 136.17 C 32.83 127.15 33.23 118.09 33.13 109.05 C 33.37 89.54 32.59 70.00 33.68 50.50 L 34.60 50.46 L 34.37 49.84 C 36.60 48.05 38.78 46.14 41.52 45.17 C 41.58 44.87 41.69 44.26 41.75 43.96 C 42.29 43.71 43.38 43.21 43.92 42.96 C 44.93 42.62 45.94 42.26 46.95 41.90 C 48.29 41.25 49.61 40.57 50.91 39.85 C 64.79 37.01 78.93 36.26 92.95 34.51 Z" />
<path fill="#000000" d=" M 433.81 33.82 C 446.69 31.28 459.92 32.19 472.97 32.39 C 478.42 32.66 483.70 34.27 489.12 34.86 C 497.09 37.79 505.75 37.76 514.10 38.78 C 518.50 40.75 523.40 40.21 528.00 41.31 C 531.16 41.89 534.26 42.76 537.35 43.67 C 543.51 46.08 545.37 53.07 545.64 59.05 C 545.56 60.58 546.58 61.77 547.44 62.92 C 549.88 69.03 550.85 75.64 550.80 82.20 C 550.94 98.12 550.84 114.05 550.85 129.98 C 550.76 135.30 550.71 140.65 549.60 145.87 C 548.06 153.52 547.30 161.37 544.77 168.79 C 543.71 173.79 543.05 178.87 541.84 183.84 C 541.06 188.86 540.49 193.95 538.82 198.78 C 538.47 199.78 538.11 200.78 537.75 201.78 C 537.62 202.37 537.37 203.54 537.25 204.12 C 536.49 205.83 535.78 207.56 535.13 209.31 C 534.92 209.40 534.50 209.56 534.29 209.64 C 534.37 210.08 534.51 210.97 534.58 211.41 L 533.19 211.61 C 533.31 212.02 533.54 212.85 533.66 213.27 C 533.41 213.35 532.92 213.52 532.67 213.60 C 531.90 215.84 530.99 218.03 530.18 220.26 C 530.06 220.35 529.84 220.53 529.73 220.62 C 528.87 222.93 527.92 225.19 527.11 227.51 L 526.21 227.28 L 526.74 228.53 L 525.83 228.53 C 525.58 228.91 525.07 229.67 524.82 230.05 C 522.26 235.61 517.56 240.46 511.92 242.89 C 510.86 243.18 509.80 243.47 508.75 243.76 C 501.17 246.61 492.94 246.65 484.96 246.86 C 470.97 246.90 456.98 246.85 442.99 246.87 C 435.68 246.83 428.35 247.05 421.06 246.40 C 413.18 245.33 405.16 245.18 397.43 243.19 L 397.77 242.22 L 396.45 242.71 L 396.37 241.38 C 395.90 241.41 394.95 241.47 394.48 241.50 L 394.51 240.28 C 394.02 240.35 393.05 240.48 392.57 240.55 L 392.39 239.22 C 392.11 239.28 391.56 239.40 391.28 239.46 C 387.26 235.14 382.65 231.00 380.78 225.20 C 380.46 224.16 380.11 223.13 379.74 222.12 C 378.74 206.10 378.05 189.54 383.28 174.13 C 383.81 172.70 384.37 171.27 384.89 169.84 C 385.35 168.31 385.75 166.77 386.20 165.24 C 387.18 160.44 387.50 155.53 388.80 150.81 C 389.27 149.54 389.69 148.26 390.14 146.99 C 390.86 145.28 391.65 143.60 392.53 141.96 C 392.52 141.64 392.50 141.00 392.48 140.68 L 393.26 140.46 C 393.87 138.71 394.54 136.98 395.21 135.25 C 395.81 132.87 396.47 130.51 397.16 128.16 C 397.84 119.71 400.77 111.52 400.14 102.98 C 400.40 83.83 399.50 64.65 400.80 45.53 C 402.39 45.45 403.96 45.38 405.56 45.33 C 405.60 44.24 405.65 43.14 405.70 42.05 C 406.23 41.75 407.30 41.14 407.83 40.84 C 411.24 39.85 414.75 39.38 418.29 39.20 C 419.47 38.77 420.65 38.35 421.84 37.92 C 423.20 37.61 424.56 37.30 425.90 36.88 C 426.92 36.54 427.93 36.19 428.95 35.83 C 430.57 35.17 432.19 34.50 433.81 33.82 Z" />
<path fill="#ffffff" d=" M 276.39 38.61 C 279.45 37.39 282.86 37.94 286.07 37.90 C 290.41 38.28 294.91 38.30 298.91 40.24 C 304.23 40.90 309.69 40.36 314.90 41.87 C 317.23 43.38 319.61 44.83 322.17 45.93 L 322.46 46.21 C 323.53 46.76 324.60 47.32 325.67 47.89 C 326.63 57.91 325.99 68.04 326.04 78.10 C 324.79 88.03 325.59 98.07 324.51 108.01 C 323.91 117.01 324.19 126.03 324.15 135.04 C 324.29 141.11 323.18 147.12 323.20 153.19 C 323.01 172.81 323.25 192.43 323.08 212.05 C 322.49 218.35 322.06 224.67 322.14 231.00 C 322.07 234.77 322.60 238.80 320.78 242.27 C 320.73 242.47 320.64 242.87 320.59 243.07 C 319.71 244.47 318.82 245.88 317.91 247.26 L 317.37 247.07 C 313.66 250.19 310.44 253.95 306.02 256.12 C 303.49 257.54 301.02 259.10 298.79 260.97 C 295.01 262.67 290.76 262.13 286.74 262.07 C 285.10 262.02 284.43 260.34 283.50 259.28 C 282.73 256.45 281.85 253.66 281.15 250.82 C 280.79 249.82 280.46 248.83 280.13 247.83 C 279.65 246.30 279.23 244.76 278.77 243.23 C 278.61 242.09 278.44 240.96 278.28 239.83 C 277.71 238.62 277.19 237.38 276.63 236.17 C 275.98 234.21 275.37 232.23 274.88 230.23 C 274.54 228.72 274.12 227.24 273.50 225.84 C 273.52 225.54 273.54 224.96 273.56 224.66 L 272.29 224.44 C 272.36 223.98 272.50 223.08 272.57 222.62 L 271.28 222.44 C 271.35 221.99 271.50 221.09 271.58 220.63 L 270.24 220.41 C 270.34 219.95 270.53 219.04 270.63 218.59 L 269.28 218.68 L 269.74 217.44 L 268.60 217.53 C 267.33 215.06 266.52 212.40 265.45 209.86 C 265.49 209.55 265.57 208.92 265.61 208.61 L 264.36 208.69 L 264.60 207.43 L 263.74 207.34 C 263.08 205.58 262.39 203.83 261.62 202.13 C 258.90 196.12 260.13 189.41 259.86 183.04 C 259.64 176.00 260.46 169.00 261.33 162.03 C 262.54 148.39 263.52 134.72 263.86 121.03 C 263.73 97.75 264.17 74.47 263.61 51.20 C 264.85 51.24 266.10 51.29 267.34 51.33 C 267.50 51.02 267.82 50.41 267.98 50.10 C 268.58 48.75 269.22 47.42 269.86 46.09 C 272.63 44.17 274.01 40.94 276.39 38.61 Z" />
<path fill="#ffffff" d=" M 441.83 49.62 C 453.77 46.75 466.46 47.37 478.42 49.92 C 486.34 52.38 494.64 53.00 502.85 53.80 C 504.57 54.08 506.25 54.61 507.90 55.22 C 513.41 55.61 518.94 56.19 524.29 57.68 C 525.68 58.32 527.09 58.96 528.50 59.60 C 529.06 61.31 529.61 63.02 530.16 64.73 C 530.39 67.55 530.50 70.41 531.48 73.10 C 534.81 76.06 534.59 80.91 535.09 84.97 C 535.21 98.30 535.08 111.63 535.14 124.96 C 535.47 134.86 533.14 144.58 531.21 154.22 C 529.68 158.74 528.82 163.46 528.14 168.18 C 526.85 173.47 526.17 178.87 525.24 184.22 C 524.41 186.74 523.65 189.28 522.84 191.81 C 522.33 193.37 521.78 194.91 521.29 196.48 L 520.43 196.67 C 520.50 197.11 520.65 197.99 520.73 198.43 L 519.42 198.63 C 519.49 199.08 519.65 199.97 519.72 200.41 L 518.87 200.62 C 518.08 202.80 517.17 204.94 516.30 207.10 C 515.20 209.44 514.18 211.82 513.32 214.26 C 511.74 216.42 510.05 218.54 509.18 221.11 C 507.78 223.77 505.41 225.69 503.00 227.38 C 501.08 228.00 499.16 228.60 497.25 229.23 C 496.22 229.57 495.19 229.93 494.18 230.31 C 491.46 230.75 488.72 231.10 485.97 231.10 C 469.32 231.16 452.67 231.12 436.02 231.13 C 428.67 231.24 421.37 230.37 414.08 229.56 C 411.94 229.42 409.92 228.68 408.03 227.71 L 407.39 227.65 C 407.38 227.31 407.36 226.64 407.35 226.30 L 406.05 226.69 C 401.62 224.85 399.15 220.73 396.56 216.97 C 394.45 212.26 394.82 207.02 394.88 202.00 C 395.17 196.52 396.03 191.04 397.68 185.80 C 398.19 184.60 398.65 183.37 399.17 182.17 C 399.48 181.16 399.82 180.16 400.19 179.16 C 400.59 176.68 401.15 174.22 402.19 171.92 C 402.56 167.97 402.82 163.97 404.08 160.17 C 404.64 158.62 405.21 157.08 405.73 155.53 L 406.58 155.34 C 406.50 154.90 406.35 154.03 406.27 153.59 L 407.12 153.39 C 407.75 151.64 408.45 149.92 409.19 148.21 C 409.52 147.18 409.87 146.15 410.24 145.13 C 410.38 144.56 410.65 143.40 410.79 142.82 C 412.71 137.11 412.79 131.02 414.16 125.18 C 416.27 117.31 415.75 109.08 415.87 101.01 C 415.83 86.13 415.94 71.26 415.81 56.38 C 416.90 56.35 418.00 56.31 419.11 56.27 C 422.59 54.55 426.52 54.49 430.31 54.30 C 431.07 53.79 431.84 53.27 432.61 52.76 C 434.47 52.57 436.36 52.45 438.18 51.98 C 439.39 51.20 440.62 50.43 441.83 49.62 Z" />
<path fill="#ffffff" d=" M 92.82 50.77 C 99.58 50.69 106.18 48.85 112.96 48.86 C 129.32 48.88 145.68 48.85 162.04 48.87 C 168.01 49.23 174.00 49.73 179.85 51.07 C 183.13 52.03 186.08 53.69 188.72 55.84 C 188.68 56.04 188.61 56.44 188.57 56.64 C 188.93 56.57 189.66 56.42 190.02 56.34 C 193.35 58.48 196.49 60.94 198.89 64.12 C 199.47 65.60 200.10 67.07 200.77 68.53 C 202.38 70.58 203.81 72.76 205.12 75.01 C 207.42 78.84 210.43 82.32 211.32 86.85 C 213.13 95.21 211.24 103.69 210.29 112.03 C 209.60 116.41 209.34 120.87 208.27 125.19 C 206.02 132.67 204.04 140.29 203.45 148.11 C 203.29 150.74 202.65 153.30 202.06 155.86 C 199.99 159.26 197.24 162.18 195.20 165.60 L 194.83 165.37 C 194.55 165.72 193.98 166.41 193.69 166.75 C 190.97 169.04 188.37 171.48 186.09 174.21 C 184.81 175.27 183.47 176.25 182.08 177.16 C 180.61 177.97 179.17 178.83 177.73 179.68 C 176.37 180.77 175.01 181.86 173.58 182.86 L 173.47 183.39 C 170.64 184.80 167.56 185.69 164.82 187.30 C 162.24 188.40 159.55 189.23 156.81 189.83 C 155.81 190.21 154.82 190.60 153.83 190.99 C 146.72 192.92 139.28 191.87 132.01 192.14 C 121.93 191.36 111.78 191.06 101.80 189.29 C 100.59 188.79 99.37 188.34 98.16 187.86 C 97.16 187.50 96.16 187.13 95.17 186.75 C 93.48 186.13 91.81 185.48 90.17 184.78 C 87.07 184.17 83.97 183.60 80.83 183.35 C 75.40 182.85 70.30 180.67 64.87 180.17 C 64.32 178.04 63.72 175.93 63.22 173.78 C 62.46 172.09 61.75 170.37 61.12 168.63 L 60.28 168.41 C 60.36 167.96 60.51 167.08 60.59 166.64 L 59.28 166.44 C 59.35 165.99 59.50 165.08 59.58 164.63 L 58.26 164.43 C 58.35 163.99 58.51 163.10 58.59 162.66 L 57.66 162.53 C 57.17 160.96 56.64 159.40 56.14 157.83 C 54.46 152.65 53.30 147.31 52.37 141.95 C 50.63 135.09 48.45 128.20 48.85 121.02 C 48.91 101.97 48.80 82.92 48.90 63.87 C 48.63 61.63 51.15 61.48 52.59 60.68 C 54.81 60.04 55.89 57.67 58.14 57.04 C 63.28 54.22 69.10 53.64 74.80 52.81 C 80.60 52.15 86.40 51.48 92.24 51.27 L 92.82 50.77 Z" />
<path fill="#000000" d=" M 678.71 55.82 C 685.14 51.26 693.32 50.40 701.00 50.23 C 709.55 50.10 718.35 49.73 726.50 52.80 L 726.34 53.71 L 727.06 53.59 C 728.25 54.19 729.46 54.74 730.69 55.30 C 733.19 55.74 735.66 56.33 738.16 56.79 C 739.87 57.54 741.61 58.24 743.37 58.88 L 743.62 59.65 C 743.89 59.67 744.43 59.71 744.70 59.73 C 746.20 60.58 747.95 60.56 749.61 60.83 L 747.16 61.41 C 749.35 62.59 751.28 64.25 753.29 65.73 C 755.15 67.30 756.92 68.98 758.62 70.73 C 758.58 71.04 758.49 71.66 758.44 71.98 C 760.80 75.09 763.73 77.67 766.34 80.57 C 766.83 87.20 766.82 93.86 766.32 100.50 L 765.70 100.53 C 765.06 102.30 764.39 104.06 763.68 105.81 C 762.99 109.39 762.41 113.01 761.23 116.48 L 760.25 116.58 C 760.33 117.02 760.51 117.91 760.59 118.35 L 759.80 118.54 C 759.01 120.46 758.14 122.34 757.29 124.23 C 755.83 127.31 754.48 130.47 752.55 133.29 L 752.58 134.07 C 751.75 135.10 750.95 136.15 750.17 137.21 C 749.12 138.60 748.09 140.00 747.14 141.45 L 746.54 141.53 L 746.53 142.32 C 742.08 147.35 736.97 151.75 731.00 154.90 C 729.46 155.81 727.95 156.75 726.43 157.67 L 726.36 158.63 C 725.92 158.53 725.04 158.33 724.61 158.23 L 724.39 159.58 C 723.93 159.50 723.03 159.36 722.57 159.28 L 722.38 160.59 C 721.93 160.51 721.03 160.35 720.58 160.27 L 720.38 161.59 C 719.93 161.51 719.04 161.36 718.60 161.28 L 718.41 162.19 C 717.11 162.60 715.82 163.06 714.56 163.52 C 714.54 163.72 714.48 164.12 714.46 164.32 C 704.61 164.96 694.71 165.16 684.87 164.25 C 679.92 162.37 674.62 161.75 669.57 160.22 C 669.55 160.07 669.51 159.77 669.49 159.62 C 667.61 158.46 665.73 157.30 663.83 156.19 C 663.32 155.94 662.31 155.42 661.81 155.16 C 660.96 153.95 660.11 152.74 659.31 151.51 C 659.06 151.45 658.56 151.32 658.31 151.25 L 658.86 149.68 L 657.38 149.34 C 657.48 148.90 657.68 148.00 657.78 147.55 C 657.56 147.54 657.11 147.52 656.88 147.51 C 656.18 145.75 655.48 144.01 654.74 142.28 C 654.04 132.88 653.70 123.35 654.96 113.98 C 656.85 106.78 656.95 99.21 659.29 92.12 C 662.49 84.34 660.55 75.67 661.81 67.52 C 663.69 67.43 665.57 67.37 667.47 67.33 C 667.48 65.73 667.48 64.13 667.49 62.54 C 669.58 60.18 672.27 58.50 675.10 57.16 C 676.30 56.73 677.51 56.30 678.71 55.82 Z" />
<path fill="#ffffff" d=" M 695.19 68.17 C 701.06 65.43 707.93 65.29 714.12 67.02 C 714.28 67.21 714.59 67.60 714.75 67.79 C 719.56 70.68 725.32 70.74 730.49 72.68 L 730.67 73.61 C 731.11 73.52 731.97 73.33 732.41 73.24 L 732.55 74.00 C 736.52 75.51 739.68 78.41 742.65 81.36 C 742.91 81.66 743.44 82.26 743.70 82.56 L 744.00 82.87 C 745.59 85.92 748.29 88.14 750.58 90.65 C 748.44 94.92 748.45 99.80 746.72 104.19 C 746.70 104.49 746.65 105.09 746.63 105.39 L 745.91 105.65 C 744.96 108.08 743.85 110.44 742.71 112.78 C 741.86 114.65 740.99 116.51 740.21 118.41 C 740.11 118.49 739.92 118.63 739.83 118.71 C 739.29 119.82 738.76 120.93 738.24 122.05 C 737.15 123.68 735.98 125.25 734.78 126.80 C 733.81 128.15 732.81 129.49 731.85 130.84 C 729.08 134.83 724.72 137.12 720.74 139.67 C 719.06 140.65 717.42 141.68 715.81 142.75 C 714.44 143.55 713.05 144.30 711.63 145.00 L 711.39 145.73 C 710.95 145.65 710.07 145.48 709.64 145.40 L 709.44 146.72 C 708.98 146.65 708.08 146.50 707.62 146.43 L 707.41 147.67 C 707.12 147.68 706.54 147.69 706.25 147.69 C 698.06 151.20 689.08 147.56 681.02 145.42 C 679.16 144.03 677.20 142.79 675.26 141.53 L 674.72 141.60 C 673.61 139.75 672.51 137.90 671.46 136.02 C 671.41 135.83 671.31 135.46 671.27 135.27 C 668.85 130.52 669.96 124.96 671.10 120.02 C 671.41 118.03 671.65 116.04 672.19 114.10 C 672.42 108.19 673.79 102.41 676.31 97.06 C 676.85 90.49 676.97 83.90 676.78 77.31 C 678.40 77.34 680.02 77.37 681.66 77.42 C 682.04 76.18 682.41 74.93 682.79 73.69 C 683.39 73.61 684.60 73.45 685.20 73.37 C 687.51 71.60 690.11 70.27 692.54 68.67 C 693.20 68.54 694.53 68.30 695.19 68.17 Z" />
<path fill="#000000" d=" M 618.19 120.92 C 619.70 120.13 621.24 119.38 622.79 118.64 C 627.58 118.56 632.37 118.55 637.17 118.65 C 637.69 118.95 638.72 119.54 639.24 119.84 C 639.75 120.91 640.26 121.98 640.78 123.06 C 642.25 126.41 642.85 130.05 643.70 133.59 L 644.18 133.55 C 645.09 136.04 646.12 138.50 647.39 140.83 C 648.44 144.73 649.16 148.72 650.69 152.48 L 651.60 152.69 C 651.51 153.12 651.33 153.99 651.24 154.42 L 652.27 154.53 C 652.98 157.27 653.48 160.07 654.18 162.82 C 654.73 164.58 655.25 166.35 655.72 168.14 C 665.43 168.15 675.18 167.88 684.86 169.02 C 697.20 169.41 709.57 168.76 721.91 169.46 C 723.40 169.71 725.25 169.27 726.42 170.50 C 727.17 171.87 727.68 173.36 728.31 174.80 C 729.25 181.48 727.78 188.54 730.21 194.95 C 731.03 202.60 730.98 210.32 730.46 217.99 C 730.57 220.33 728.97 222.13 727.86 224.02 C 723.69 247.11 722.33 270.60 718.89 293.79 C 717.71 301.51 718.01 309.33 717.21 317.08 C 714.75 323.18 716.45 330.01 714.13 336.17 C 712.93 339.06 712.42 342.16 712.17 345.26 L 711.85 345.81 C 710.89 352.97 709.27 360.02 708.26 367.17 C 707.71 368.35 707.22 369.56 706.71 370.75 C 706.41 371.76 706.11 372.77 705.80 373.77 C 705.47 375.11 705.13 376.44 704.78 377.78 C 703.76 381.44 702.86 385.14 701.78 388.79 C 700.96 391.78 700.48 394.84 700.12 397.92 C 696.97 406.32 698.34 415.47 697.23 424.20 C 696.61 428.09 696.69 432.04 696.21 435.95 C 694.08 440.69 695.08 446.01 694.87 451.03 C 695.12 464.71 694.47 478.55 690.84 491.80 C 689.99 495.27 689.05 498.71 688.16 502.17 C 687.46 503.85 686.78 505.54 686.15 507.26 C 686.03 507.35 685.78 507.53 685.65 507.62 C 683.35 512.51 683.63 518.00 684.70 523.17 C 685.23 524.70 685.72 526.28 686.28 527.82 C 686.95 535.90 687.05 544.04 686.47 552.13 C 686.37 553.88 685.74 555.54 685.25 557.22 C 678.84 557.72 672.38 557.92 666.00 557.18 C 663.20 556.32 660.34 555.67 657.46 555.20 L 657.56 554.73 C 656.29 553.92 655.05 553.08 653.82 552.26 C 652.09 550.85 650.23 549.66 648.28 548.61 C 647.15 548.03 646.03 547.43 644.94 546.83 C 643.21 545.96 641.48 545.10 639.74 544.27 C 637.16 542.76 634.56 541.29 631.97 539.80 C 630.88 539.30 629.83 538.78 628.76 538.29 C 627.82 537.79 626.88 537.29 625.95 536.80 C 625.26 536.41 624.58 536.03 623.90 535.65 C 622.21 534.96 620.54 534.25 618.92 533.47 C 618.60 533.49 617.96 533.53 617.64 533.54 L 617.44 532.29 C 616.98 532.36 616.08 532.50 615.62 532.57 L 615.40 531.29 C 615.12 531.32 614.56 531.38 614.28 531.41 C 611.10 527.79 607.16 524.61 602.54 523.09 L 602.78 522.25 L 601.57 522.54 C 601.56 522.02 601.53 520.98 601.52 520.45 C 601.00 520.46 599.96 520.47 599.44 520.47 L 599.80 519.25 L 598.58 519.55 C 598.57 519.05 598.53 518.05 598.51 517.54 C 598.19 517.48 597.53 517.37 597.21 517.31 C 595.79 515.72 594.26 514.25 592.72 512.79 C 593.12 513.42 593.91 514.68 594.31 515.30 C 594.61 516.13 594.94 516.95 595.28 517.78 C 596.52 520.74 597.90 523.71 598.38 526.91 C 599.11 535.20 598.88 543.54 598.40 551.84 C 585.33 554.15 571.91 552.21 559.22 548.81 C 558.20 548.44 557.19 548.06 556.20 547.68 C 552.82 547.19 549.42 546.83 546.00 546.86 C 502.99 546.90 459.97 546.81 416.96 546.90 C 407.33 547.64 397.72 548.89 388.04 548.86 C 359.36 548.88 330.67 548.85 301.99 548.87 C 281.59 548.84 261.29 551.16 240.94 552.25 C 234.15 552.65 227.81 555.62 220.99 555.82 C 214.99 556.17 209.03 556.94 203.15 558.23 C 192.80 559.30 182.37 558.71 171.98 558.87 C 156.48 558.83 140.98 558.95 125.49 558.81 C 121.88 558.57 118.04 559.06 114.70 557.36 C 114.52 557.07 114.16 556.49 113.98 556.20 C 113.62 554.81 113.28 553.43 112.80 552.09 C 111.95 549.82 111.47 547.44 110.75 545.14 C 109.77 530.32 109.85 515.42 110.80 500.61 C 111.88 500.48 112.95 500.37 114.03 500.26 C 115.33 499.08 116.71 498.01 118.03 496.87 C 118.48 496.65 119.37 496.21 119.82 496.00 C 120.87 495.58 121.91 495.15 122.94 494.69 C 131.88 493.70 140.72 495.63 149.64 495.34 C 149.51 495.67 149.25 496.32 149.12 496.65 C 156.06 497.90 162.86 500.52 170.00 500.15 C 185.35 499.92 200.72 500.71 216.02 499.32 C 232.11 498.91 248.30 499.70 264.26 497.19 C 265.50 496.79 266.68 496.24 267.82 495.63 C 274.38 492.22 282.09 494.36 288.88 491.78 C 297.34 491.12 305.86 490.95 314.20 489.24 C 319.16 487.09 324.64 487.28 329.93 487.12 C 338.98 487.01 347.92 485.28 356.98 485.16 C 363.36 485.06 369.59 483.39 375.98 483.30 C 387.80 482.83 399.50 481.09 411.16 479.16 C 420.37 477.20 429.69 475.90 438.89 473.85 C 447.94 473.44 456.06 468.75 465.08 468.07 C 469.10 467.38 473.15 466.82 477.17 466.13 C 486.93 463.99 496.93 463.07 506.91 463.14 C 517.96 463.20 529.02 462.96 540.07 463.30 C 546.12 463.43 552.12 464.80 558.20 464.35 L 559.13 464.28 C 559.99 464.14 560.80 464.33 560.50 465.32 C 562.78 465.54 565.04 466.03 567.27 466.60 C 570.17 468.09 572.89 470.20 573.92 473.44 L 574.27 473.53 C 575.01 475.85 575.41 478.42 577.15 480.28 C 577.99 482.06 578.64 483.92 579.40 485.74 C 579.91 481.89 579.00 477.75 579.69 473.80 C 580.38 472.41 581.05 471.01 581.74 469.62 C 582.55 468.40 583.33 467.15 584.13 465.92 C 584.97 459.69 587.59 453.93 588.25 447.67 C 589.94 440.13 588.29 432.25 590.07 424.74 C 592.40 424.76 594.73 424.67 597.06 424.46 C 597.30 421.28 597.44 418.09 597.77 414.92 C 598.76 412.62 599.41 410.20 599.84 407.74 C 600.11 407.33 600.66 406.51 600.94 406.10 C 601.87 405.15 602.78 404.17 603.70 403.20 C 603.62 402.81 603.47 402.04 603.39 401.66 L 604.66 401.46 C 604.66 401.16 604.67 400.57 604.67 400.28 C 606.80 398.87 608.11 396.67 607.89 394.06 C 608.18 377.03 608.21 359.99 608.06 342.96 C 606.70 331.02 607.25 319.00 607.12 307.01 C 607.04 300.63 604.72 294.61 603.34 288.45 L 602.56 288.45 C 602.55 287.96 602.53 286.99 602.53 286.50 C 602.13 286.47 601.33 286.43 600.93 286.40 C 600.34 285.56 599.76 284.73 599.17 283.91 C 598.06 283.46 596.98 282.98 595.91 282.47 C 595.59 282.48 594.96 282.52 594.64 282.54 L 594.43 281.37 C 594.11 281.35 593.47 281.31 593.15 281.29 C 587.88 279.62 582.29 279.81 576.86 279.22 C 573.20 278.39 569.39 278.43 565.83 277.12 C 559.72 274.98 553.10 275.69 546.84 274.22 C 542.47 271.61 536.75 274.01 532.86 270.47 C 532.55 269.01 532.27 267.57 531.84 266.16 C 529.61 261.39 531.07 255.95 530.69 250.87 C 531.07 249.87 531.43 248.87 531.79 247.87 C 532.48 246.24 533.16 244.62 533.85 242.99 C 534.35 241.74 534.80 240.46 535.29 239.20 C 535.78 237.68 536.34 236.19 536.85 234.68 L 537.18 234.60 C 537.70 231.05 539.41 227.84 542.51 225.91 C 542.50 225.58 542.49 224.93 542.49 224.61 L 543.72 224.45 C 543.65 224.00 543.50 223.11 543.43 222.67 L 544.22 222.46 C 545.13 219.86 546.21 217.32 547.56 214.92 C 547.52 214.59 547.45 213.91 547.41 213.58 L 548.66 213.69 L 548.58 212.97 C 550.02 211.00 550.98 208.75 551.87 206.49 L 552.76 206.46 C 552.72 206.16 552.65 205.56 552.61 205.26 C 554.51 203.58 556.31 201.81 558.15 200.07 C 558.89 198.62 559.65 197.19 560.47 195.79 C 560.46 195.46 560.43 194.80 560.42 194.47 L 561.09 194.63 C 563.21 191.78 566.15 189.39 566.70 185.67 C 568.20 182.92 570.00 180.34 571.81 177.78 C 572.95 175.09 573.79 172.24 575.40 169.76 C 575.45 169.47 575.54 168.88 575.59 168.58 L 576.73 168.45 C 576.65 168.00 576.49 167.09 576.42 166.64 L 577.73 166.43 C 577.65 165.98 577.49 165.09 577.41 164.64 L 578.72 164.44 C 578.65 163.99 578.50 163.08 578.42 162.63 L 579.73 162.44 C 579.65 161.98 579.49 161.08 579.42 160.63 L 580.72 160.44 C 580.65 159.99 580.50 159.08 580.43 158.63 L 581.77 158.41 C 581.67 157.95 581.47 157.04 581.36 156.58 L 582.63 156.68 L 582.57 155.82 C 583.82 153.82 585.01 151.78 585.99 149.62 L 586.73 149.40 C 586.65 148.96 586.49 148.08 586.41 147.64 L 587.84 147.34 L 587.32 145.73 C 587.67 145.65 588.37 145.48 588.73 145.39 C 588.65 144.95 588.49 144.06 588.42 143.62 L 589.72 143.45 C 589.65 142.99 589.50 142.08 589.42 141.63 L 590.75 141.41 C 590.66 140.97 590.49 140.10 590.40 139.66 L 591.27 139.53 C 591.87 137.34 592.52 135.16 593.27 133.00 L 593.29 132.37 C 597.23 132.24 601.33 132.94 605.11 131.46 C 606.61 129.17 608.82 127.53 611.11 126.09 C 612.51 125.13 613.89 124.13 615.23 123.08 C 616.23 122.37 617.22 121.67 618.19 120.92 Z" />
<path fill="#ffffff" d=" M 624.90 139.17 C 625.60 138.44 626.35 137.72 627.08 137.01 C 627.73 140.20 628.72 143.30 629.85 146.35 L 630.32 146.38 C 630.99 148.66 631.79 150.91 632.78 153.09 C 633.55 155.41 634.05 157.82 634.71 160.18 C 635.50 161.87 636.22 163.59 636.89 165.33 L 637.44 165.51 C 638.28 168.72 638.73 172.02 639.83 175.16 C 640.31 176.79 640.57 178.46 640.88 180.14 C 641.12 180.69 641.60 181.79 641.84 182.35 C 650.98 185.01 660.72 183.29 670.11 183.97 C 684.15 185.55 698.30 184.54 712.39 184.94 C 712.55 185.11 712.86 185.45 713.02 185.63 C 713.45 191.88 712.74 198.32 714.68 204.39 C 715.52 206.89 714.86 209.53 713.80 211.85 C 712.85 214.09 712.32 216.47 711.97 218.87 C 709.19 237.53 707.29 256.31 705.14 275.05 C 704.03 282.35 703.12 289.68 702.50 297.04 C 702.12 301.68 702.60 306.52 700.78 310.92 C 700.07 316.21 700.64 321.71 698.86 326.82 C 698.52 327.87 698.19 328.93 697.86 329.98 C 697.39 333.73 696.73 337.44 696.13 341.17 C 694.64 347.12 694.65 353.41 692.32 359.15 C 690.97 362.74 690.10 366.48 689.18 370.20 C 688.10 374.09 687.22 378.04 685.84 381.84 C 684.97 387.90 683.58 393.87 682.63 399.91 C 681.81 410.22 682.25 420.74 679.67 430.83 C 678.16 445.87 680.63 461.19 677.32 476.07 C 675.84 482.12 674.42 488.21 672.36 494.10 C 671.44 495.99 670.58 497.92 669.66 499.83 C 667.48 507.31 668.26 515.27 668.34 522.97 C 668.21 529.16 670.92 534.90 671.26 541.04 C 670.20 540.68 669.16 540.32 668.13 539.96 C 666.78 538.80 665.43 537.63 664.13 536.43 L 663.33 536.77 L 663.41 536.00 C 661.91 535.30 660.45 534.50 659.03 533.67 C 658.81 533.60 658.35 533.47 658.12 533.40 C 656.46 532.42 654.77 531.49 653.11 530.52 L 652.22 530.41 C 649.61 528.76 646.91 527.28 644.25 525.72 C 642.50 524.89 640.77 524.03 639.05 523.16 C 636.78 521.78 634.39 520.63 631.98 519.55 C 631.63 519.58 630.92 519.66 630.57 519.69 L 630.35 518.40 C 629.91 518.49 629.03 518.66 628.59 518.74 L 628.41 517.97 C 625.90 517.53 624.36 515.46 622.88 513.62 C 622.60 513.61 622.05 513.60 621.77 513.59 L 621.40 513.08 C 620.02 512.22 619.09 510.90 618.24 509.57 C 617.94 509.47 617.36 509.25 617.07 509.14 C 615.52 508.15 614.01 507.09 612.48 506.10 C 612.47 505.69 612.45 504.86 612.44 504.45 L 611.23 504.78 L 611.44 504.00 C 606.79 502.39 603.98 497.87 601.48 493.90 C 601.50 493.54 601.54 492.81 601.56 492.44 L 600.27 492.74 L 600.59 491.82 C 599.34 490.54 598.12 489.25 596.89 487.96 C 596.67 486.79 596.47 485.63 596.28 484.47 L 595.21 484.40 C 595.50 483.58 596.09 481.92 596.39 481.09 L 596.39 480.32 L 597.65 480.43 C 597.54 479.98 597.32 479.07 597.21 478.62 L 598.26 478.43 C 600.03 474.71 598.97 469.71 602.18 466.80 C 602.56 462.67 602.83 458.52 603.84 454.49 C 604.99 450.35 604.42 446.00 605.01 441.80 C 606.29 440.13 608.16 439.05 609.90 437.93 C 610.67 437.28 611.46 436.65 612.25 436.02 C 612.82 429.85 612.20 422.73 616.30 417.64 C 616.30 417.37 616.31 416.83 616.31 416.55 L 617.58 416.38 C 617.50 415.93 617.35 415.02 617.27 414.57 L 618.60 414.35 C 618.54 413.97 618.41 413.20 618.34 412.82 C 618.82 412.62 619.78 412.23 620.26 412.03 C 621.41 411.35 622.10 410.38 622.32 409.12 C 624.81 399.94 623.79 390.35 623.96 380.97 C 623.46 362.64 624.69 344.26 622.89 325.99 C 622.72 315.97 623.21 305.93 622.38 295.94 C 621.58 290.60 620.13 285.38 618.69 280.19 C 618.59 279.51 618.39 278.15 618.29 277.47 L 617.22 277.45 C 617.32 277.00 617.52 276.12 617.62 275.67 L 616.24 275.38 C 616.35 274.92 616.56 274.00 616.66 273.53 L 615.33 273.79 L 615.36 273.12 C 614.24 272.56 613.46 271.70 613.02 270.54 C 611.68 269.84 610.31 269.20 608.97 268.54 C 608.62 268.58 607.93 268.66 607.58 268.71 L 607.35 267.41 C 606.91 267.50 606.01 267.66 605.57 267.74 L 605.45 266.69 C 595.62 263.57 585.08 264.65 575.16 261.99 C 574.15 261.57 573.16 261.14 572.17 260.71 C 566.43 260.04 560.29 260.76 554.95 258.19 C 552.56 257.41 550.02 257.43 547.54 257.31 L 547.69 255.97 C 549.29 252.95 549.60 249.23 552.11 246.75 C 552.32 245.22 552.52 243.69 552.70 242.17 C 553.89 241.00 555.09 239.84 556.36 238.75 C 556.34 238.45 556.32 237.85 556.31 237.55 L 557.58 237.37 C 557.51 236.93 557.35 236.04 557.27 235.59 L 558.14 235.39 C 558.96 233.09 559.91 230.84 560.75 228.54 L 561.58 228.33 C 561.51 227.90 561.38 227.05 561.32 226.62 L 561.87 226.24 C 562.99 224.90 564.18 223.62 565.35 222.32 C 565.39 221.57 565.46 220.09 565.50 219.35 L 565.95 219.27 C 566.82 216.22 569.86 214.89 572.14 213.05 C 572.81 211.42 573.48 209.80 574.16 208.17 C 577.03 203.94 580.85 200.34 582.20 195.24 C 583.98 192.68 585.75 190.11 587.28 187.39 C 587.80 185.56 588.49 183.78 589.32 182.07 L 589.35 181.38 C 589.69 181.38 590.38 181.36 590.72 181.35 L 590.14 179.67 L 591.57 179.39 C 591.49 178.93 591.35 178.03 591.28 177.57 L 592.60 177.37 C 592.51 176.93 592.34 176.06 592.25 175.62 C 592.61 175.53 593.32 175.36 593.68 175.28 L 593.16 173.66 L 594.58 173.37 C 594.51 172.93 594.35 172.04 594.27 171.60 L 594.99 171.37 C 595.70 169.84 596.55 168.38 597.50 166.99 C 597.48 166.68 597.45 166.07 597.43 165.77 L 598.61 165.53 L 598.34 164.30 L 599.64 164.42 C 599.54 163.97 599.33 163.06 599.22 162.60 L 600.58 162.38 C 600.50 161.92 600.35 161.01 600.27 160.56 L 601.58 160.38 C 601.50 159.93 601.35 159.02 601.27 158.57 L 602.59 158.37 C 602.51 157.92 602.34 157.02 602.26 156.57 L 603.57 156.38 C 603.50 155.93 603.35 155.02 603.28 154.56 L 604.56 154.36 C 604.53 154.04 604.47 153.40 604.44 153.08 C 605.02 151.93 605.58 150.76 606.13 149.59 C 608.98 149.40 611.84 149.43 614.71 149.34 C 617.07 146.65 619.66 144.17 622.28 141.72 C 622.40 141.28 622.64 140.39 622.77 139.95 C 623.30 139.75 624.36 139.36 624.90 139.17 Z" />
<path fill="#000000" d=" M 96.82 265.67 C 104.32 263.44 112.29 264.40 120.00 264.13 C 127.18 263.89 134.26 264.94 141.37 265.70 C 142.28 266.21 143.20 266.73 144.11 267.26 C 145.91 268.08 147.70 268.92 149.48 269.79 C 150.95 270.77 152.47 271.68 153.97 272.62 C 154.32 272.57 155.01 272.48 155.36 272.43 L 155.58 273.72 C 156.03 273.65 156.94 273.50 157.39 273.43 L 157.57 274.73 C 158.01 274.65 158.90 274.50 159.34 274.42 L 159.53 275.27 C 160.80 275.69 162.05 276.19 163.32 276.63 C 163.73 276.97 164.54 277.65 164.94 277.99 C 168.71 281.09 171.06 285.72 175.40 288.09 C 175.37 288.44 175.32 289.13 175.30 289.48 L 176.36 289.53 C 179.62 302.28 176.83 315.52 176.36 328.44 C 175.72 329.26 175.08 330.07 174.44 330.89 C 174.39 331.08 174.29 331.48 174.24 331.68 C 173.44 332.71 172.67 333.77 171.89 334.83 C 170.81 336.15 169.79 337.54 168.87 338.99 C 167.69 341.31 165.89 343.19 163.92 344.86 C 163.65 345.11 163.12 345.62 162.85 345.88 C 159.94 349.08 157.04 352.69 152.61 353.75 L 152.50 354.31 C 142.47 355.16 132.35 354.95 122.42 353.23 L 122.45 352.25 C 122.14 352.28 121.54 352.33 121.23 352.36 C 118.52 351.10 115.63 350.29 112.91 349.05 C 110.76 347.59 108.85 345.82 106.85 344.19 C 105.51 343.20 104.17 342.20 102.80 341.27 C 100.82 339.97 98.84 338.67 96.98 337.20 C 96.20 334.51 93.90 332.80 91.81 331.16 C 91.52 330.14 91.22 329.13 90.91 328.12 C 90.51 327.06 90.10 326.00 89.68 324.96 C 89.63 324.72 89.55 324.26 89.50 324.03 C 89.08 323.59 88.22 322.73 87.80 322.30 C 86.56 320.49 85.06 318.89 83.86 317.08 C 82.71 308.27 83.16 299.34 83.68 290.50 L 84.63 290.41 L 84.35 289.16 C 84.89 289.25 85.96 289.44 86.50 289.53 C 86.59 286.63 86.58 283.73 86.67 280.84 C 87.24 279.61 87.75 278.36 88.30 277.12 C 89.09 275.00 89.99 272.93 90.75 270.80 C 91.03 270.33 91.60 269.37 91.88 268.90 C 92.64 268.24 93.39 267.59 94.14 266.95 C 95.04 266.53 95.94 266.11 96.82 265.67 Z" />
<path fill="#ffffff" d=" M 106.62 281.56 C 107.83 280.62 109.25 279.98 110.81 279.96 C 117.29 279.64 123.81 279.87 130.23 280.83 C 132.65 281.65 134.92 282.84 137.29 283.80 L 137.44 284.60 L 138.64 284.32 C 138.64 284.68 138.66 285.38 138.66 285.73 L 140.29 285.16 C 140.40 285.54 140.63 286.30 140.75 286.69 L 142.34 286.16 L 142.63 287.58 C 143.07 287.51 143.95 287.36 144.39 287.28 C 144.48 287.64 144.65 288.35 144.74 288.71 L 146.29 288.15 C 146.40 288.52 146.61 289.26 146.71 289.63 L 148.04 289.32 C 151.26 291.08 153.94 293.60 156.73 295.95 C 157.48 298.34 158.91 300.50 161.53 301.06 C 162.14 303.54 161.86 306.08 161.61 308.59 C 161.18 312.83 161.76 317.46 159.21 321.17 C 157.74 323.18 156.12 325.06 154.39 326.86 C 154.45 327.19 154.56 327.86 154.61 328.20 L 153.72 328.40 C 153.45 328.70 152.90 329.31 152.63 329.61 C 150.91 331.21 149.20 332.82 147.74 334.68 C 146.89 335.88 145.96 337.02 145.00 338.15 C 141.07 338.96 136.87 339.51 133.06 337.88 C 130.43 336.62 127.55 335.99 124.98 334.60 C 124.69 334.57 124.11 334.50 123.81 334.47 L 123.36 334.09 C 122.08 333.05 120.91 331.89 119.82 330.66 C 119.62 330.63 119.22 330.56 119.02 330.53 C 118.60 330.08 117.76 329.17 117.34 328.72 C 114.96 327.27 112.66 325.70 110.37 324.13 C 110.38 323.91 110.39 323.47 110.40 323.25 C 108.85 321.91 107.39 320.48 105.96 319.02 C 105.46 316.80 104.75 314.64 104.16 312.45 L 103.15 312.71 L 103.60 311.86 C 102.36 310.53 101.15 309.17 99.88 307.87 C 98.33 304.10 98.90 299.95 98.70 295.99 C 99.09 296.13 99.85 296.39 100.23 296.52 C 100.43 296.18 100.84 295.49 101.04 295.14 C 101.52 293.09 102.23 291.11 103.02 289.15 C 104.00 286.53 105.10 283.93 106.62 281.56 Z" />
<path fill="#000000" d=" M 537.51 288.74 C 539.67 288.18 541.81 287.48 544.07 287.44 C 552.75 286.96 561.45 287.02 570.12 287.71 C 570.84 291.17 574.43 290.18 577.06 290.27 C 580.36 289.77 581.81 293.48 584.19 295.06 C 584.44 295.50 584.93 296.40 585.18 296.84 C 585.62 298.10 586.12 299.34 586.62 300.60 L 587.18 300.52 C 588.87 307.35 594.54 311.89 599.44 316.50 C 600.16 317.51 600.71 318.64 601.34 319.73 C 602.19 331.81 601.77 343.92 601.87 356.01 C 601.78 366.43 602.58 377.27 598.41 387.09 C 596.65 390.08 596.66 393.64 595.89 396.94 C 595.21 400.74 594.11 404.44 593.15 408.17 C 592.26 410.32 591.52 412.52 590.86 414.76 C 590.53 416.69 589.77 418.50 588.74 420.17 C 587.75 422.20 586.86 424.28 586.11 426.41 L 585.95 426.58 C 581.93 431.02 577.98 435.81 572.84 438.99 L 572.52 439.57 L 571.30 439.35 L 571.42 440.65 C 570.96 440.54 570.06 440.34 569.60 440.23 L 569.38 441.57 C 568.92 441.50 568.02 441.36 567.56 441.29 L 567.35 442.56 C 567.03 442.53 566.38 442.47 566.06 442.44 C 564.80 443.15 563.73 444.49 562.16 444.40 C 554.74 445.01 547.26 444.92 539.85 444.28 C 538.85 443.87 537.85 443.47 536.85 443.09 C 535.84 442.77 534.83 442.46 533.83 442.16 C 532.83 441.80 531.83 441.46 530.83 441.13 C 529.83 440.79 528.83 440.46 527.83 440.15 C 526.83 439.79 525.83 439.45 524.83 439.13 C 523.83 438.79 522.83 438.47 521.83 438.16 C 520.18 437.49 518.53 436.84 516.87 436.22 C 515.12 435.47 513.36 434.76 511.59 434.11 L 511.42 433.80 C 509.92 433.18 508.45 432.51 506.99 431.83 C 504.50 430.54 502.01 429.25 499.48 428.07 C 499.47 427.85 499.46 427.43 499.45 427.22 C 499.00 427.32 498.09 427.51 497.63 427.61 L 497.31 426.11 L 495.71 426.75 C 495.68 426.50 495.64 426.00 495.62 425.75 C 494.36 425.14 493.13 424.51 491.91 423.87 C 489.73 422.73 487.60 421.52 485.49 420.29 L 485.39 419.84 C 482.51 417.50 479.56 415.26 476.52 413.15 L 476.48 412.63 C 475.25 412.01 474.02 411.39 472.78 410.82 C 471.50 396.15 472.10 381.30 474.75 366.81 C 475.31 365.60 475.81 364.36 476.36 363.15 C 478.75 356.86 479.37 350.08 481.78 343.79 C 482.26 342.53 482.67 341.24 483.13 339.98 C 483.78 338.60 484.48 337.25 485.23 335.92 C 486.20 333.86 487.10 331.77 487.89 329.63 L 488.69 329.42 C 488.67 329.10 488.63 328.46 488.61 328.14 C 490.01 327.04 491.39 325.92 492.81 324.83 C 496.39 322.11 499.15 318.48 502.75 315.78 C 507.86 311.94 511.71 306.70 516.74 302.77 C 518.86 301.24 520.75 299.44 522.72 297.75 C 526.92 295.15 530.54 291.47 535.46 290.21 L 535.69 289.40 C 536.13 289.49 536.99 289.68 537.43 289.77 L 537.51 288.74 Z" />
<path fill="#ffffff" d=" M 548.42 303.49 C 553.97 302.53 559.62 302.99 565.22 302.62 C 565.73 303.39 566.27 304.16 566.82 304.92 C 567.86 305.52 568.92 306.16 569.83 306.98 C 570.69 309.16 571.88 311.18 572.99 313.25 L 573.22 313.32 C 573.61 314.86 574.09 316.39 574.61 317.90 C 578.65 320.74 581.08 325.12 584.52 328.55 C 586.39 330.14 586.11 332.78 586.16 334.99 C 586.09 344.66 586.19 354.34 586.11 364.01 C 585.84 368.05 585.71 372.32 583.59 375.90 C 580.87 383.78 580.53 392.36 577.31 400.13 C 576.49 402.72 575.89 405.40 574.68 407.86 C 573.76 409.57 572.99 411.35 572.34 413.18 C 570.18 417.93 565.86 421.19 562.00 424.52 C 561.74 424.51 561.21 424.49 560.95 424.49 C 559.33 425.60 557.66 426.62 555.98 427.62 L 555.33 427.70 C 552.52 429.51 549.15 428.91 546.15 428.01 C 545.15 427.60 544.17 427.20 543.18 426.81 C 542.16 426.51 541.16 426.20 540.16 425.88 C 539.15 425.54 538.16 425.19 537.17 424.84 C 536.16 424.53 535.16 424.22 534.17 423.89 C 533.15 423.52 532.15 423.15 531.15 422.77 C 528.95 421.95 526.79 421.06 524.59 420.27 L 524.29 419.92 C 520.20 418.28 516.37 416.08 512.37 414.26 L 512.37 413.36 C 511.93 413.46 511.05 413.68 510.61 413.78 L 510.36 412.42 C 509.92 412.50 509.03 412.64 508.58 412.72 L 508.39 411.90 C 506.97 411.23 505.58 410.53 504.19 409.84 C 503.67 409.49 502.62 408.79 502.10 408.44 L 501.09 408.55 C 499.42 407.33 497.79 406.05 496.19 404.76 C 494.86 403.77 493.55 402.74 492.27 401.70 C 491.44 401.19 490.62 400.68 489.80 400.18 C 487.31 398.17 487.84 394.79 487.92 391.97 C 488.43 386.22 488.48 380.30 490.62 374.85 C 491.15 373.63 491.67 372.41 492.21 371.21 C 492.78 368.74 493.43 366.30 493.89 363.81 C 494.21 362.47 494.50 361.13 494.81 359.79 C 495.14 358.79 495.46 357.79 495.77 356.79 C 496.22 355.58 496.65 354.36 497.12 353.16 C 497.62 351.76 498.17 350.39 498.72 349.01 C 499.26 348.12 499.80 347.23 500.33 346.33 C 500.95 344.80 501.63 343.30 502.36 341.82 L 502.49 341.04 C 506.30 338.01 509.30 334.09 513.25 331.22 C 517.87 327.52 521.71 322.97 526.06 318.98 C 526.39 318.81 527.04 318.47 527.36 318.30 C 529.26 316.55 531.14 314.77 533.18 313.18 C 536.11 311.03 539.05 308.89 541.95 306.70 C 544.10 305.80 546.25 304.90 548.46 304.11 L 548.42 303.49 Z" />
<path fill="#000000" d=" M 270.17 328.83 C 272.08 328.01 274.05 327.32 276.09 326.89 C 291.44 325.06 306.93 326.56 322.15 328.81 C 327.98 331.13 334.55 331.19 340.11 334.16 C 341.64 334.94 343.19 335.64 344.77 336.32 C 346.27 336.75 347.74 337.27 349.22 337.78 C 354.28 339.67 359.80 340.19 364.59 342.80 C 368.76 346.19 373.87 348.38 377.42 352.50 C 379.44 354.86 381.19 357.42 383.20 359.80 C 385.58 362.56 387.98 365.37 389.33 368.81 C 389.94 377.18 389.93 385.58 389.83 393.97 C 389.69 400.06 389.65 406.37 387.15 412.05 C 386.21 414.33 385.59 416.73 385.19 419.17 C 384.82 420.16 384.46 421.15 384.12 422.16 C 383.78 423.15 383.46 424.15 383.15 425.16 C 382.80 426.15 382.46 427.15 382.13 428.16 C 381.79 429.16 381.46 430.16 381.15 431.18 C 380.70 432.45 380.29 433.74 379.86 435.04 C 379.05 436.79 378.15 438.50 377.28 440.23 C 376.97 440.69 376.37 441.62 376.06 442.09 C 374.33 443.52 372.46 444.78 370.49 445.85 L 370.52 446.32 C 355.67 447.47 340.53 447.07 326.17 442.79 C 325.60 442.65 324.45 442.37 323.87 442.23 C 322.86 441.85 321.85 441.49 320.84 441.15 C 319.61 440.65 318.37 440.19 317.15 439.70 C 315.44 439.07 313.74 438.42 312.05 437.78 C 309.85 436.79 307.76 435.61 305.74 434.32 C 304.46 433.22 303.18 432.13 301.85 431.10 C 299.91 429.71 297.95 428.37 295.90 427.17 C 295.36 426.95 294.27 426.53 293.73 426.32 C 292.05 425.32 290.38 424.32 288.69 423.33 C 286.40 421.28 284.18 419.16 281.98 417.02 C 281.17 416.39 280.36 415.76 279.54 415.15 L 279.45 414.53 L 278.41 414.59 L 278.49 413.51 L 277.40 413.59 L 277.49 412.51 L 276.69 412.57 C 276.43 412.26 275.92 411.64 275.66 411.33 C 273.76 409.55 271.89 407.76 269.85 406.15 C 268.48 405.18 267.13 404.20 265.72 403.29 C 263.34 401.33 261.20 399.12 258.95 397.04 C 256.54 394.46 254.05 391.95 251.66 389.36 C 251.35 389.09 250.73 388.57 250.42 388.30 L 250.47 387.54 L 249.98 387.35 C 248.92 386.23 247.81 385.17 246.70 384.12 C 246.01 375.43 246.06 366.71 246.21 358.00 C 246.39 354.37 246.15 350.62 247.53 347.18 C 249.48 345.89 250.77 343.94 251.96 341.97 C 252.65 341.31 253.34 340.65 254.03 339.99 C 255.01 338.98 256.01 337.98 257.00 336.98 C 258.44 335.99 259.88 334.99 261.20 333.84 C 262.76 333.01 264.38 332.28 265.98 331.53 L 266.81 331.55 C 267.94 330.65 269.08 329.77 270.17 328.83 Z" />
<path fill="#ffffff" d=" M 282.00 343.15 C 291.50 340.44 301.37 342.77 310.94 343.78 C 316.56 345.25 322.36 346.17 327.82 348.19 C 329.52 349.14 331.27 350.06 333.08 350.82 C 334.14 351.13 335.20 351.43 336.28 351.72 C 337.44 352.22 338.63 352.69 339.80 353.19 C 343.91 354.18 348.05 355.13 352.01 356.67 C 356.18 359.96 361.29 362.09 364.85 366.11 C 365.77 367.52 366.75 368.89 367.70 370.28 C 369.45 372.30 371.25 374.28 373.12 376.20 C 374.49 380.35 374.11 384.76 374.14 389.07 C 374.10 392.72 374.23 396.51 372.89 399.99 C 371.44 403.12 370.87 406.54 369.90 409.84 C 369.55 410.83 369.20 411.83 368.84 412.83 C 368.53 413.83 368.20 414.84 367.87 415.84 C 367.53 416.84 367.19 417.84 366.83 418.83 C 366.53 419.84 366.23 420.85 365.92 421.87 C 365.10 424.02 364.14 426.11 363.20 428.22 L 362.67 428.37 C 362.45 428.82 362.00 429.72 361.78 430.16 C 352.24 432.56 342.34 429.56 333.17 426.90 C 332.17 426.54 331.18 426.17 330.20 425.79 C 328.45 425.14 326.71 424.48 324.98 423.79 C 323.61 423.25 322.26 422.71 320.90 422.20 C 319.28 421.12 317.72 419.96 316.17 418.79 C 314.84 417.79 313.53 416.74 312.23 415.70 C 310.58 414.68 308.94 413.66 307.28 412.66 C 306.15 412.20 305.04 411.71 303.92 411.26 C 302.31 410.16 300.77 408.98 299.26 407.75 C 298.96 407.56 298.36 407.18 298.06 406.98 C 295.47 404.55 292.94 402.07 290.35 399.65 C 290.09 399.35 289.56 398.73 289.30 398.43 L 288.50 398.50 L 288.60 397.40 L 287.50 397.50 L 287.60 396.41 L 286.54 396.47 L 286.46 395.87 C 285.63 395.23 284.82 394.59 284.03 393.93 C 282.79 392.84 281.52 391.78 280.26 390.73 C 278.87 389.81 277.52 388.85 276.15 387.93 C 273.15 385.53 270.65 382.62 267.92 379.94 C 267.78 379.54 267.48 378.75 267.33 378.35 L 266.55 378.54 L 266.56 377.70 C 266.27 377.44 265.68 376.91 265.39 376.64 C 264.37 375.62 263.35 374.60 262.31 373.60 C 261.60 368.65 261.63 363.58 262.52 358.66 C 263.09 358.58 264.23 358.43 264.79 358.35 C 265.32 357.14 265.92 355.97 266.62 354.86 C 268.16 353.55 269.63 352.15 270.85 350.53 C 271.80 350.17 272.76 349.80 273.71 349.45 C 273.64 349.03 273.49 348.19 273.42 347.77 C 274.54 347.54 275.67 347.32 276.80 347.09 C 278.04 345.73 279.78 345.27 281.52 344.94 C 281.47 344.58 281.36 343.86 281.31 343.50 L 282.00 343.15 Z" />
<path fill="#ffffff" d=" M 489.87 480.51 C 501.72 477.86 513.92 479.18 525.95 478.87 C 533.02 478.57 540.03 479.44 547.08 479.85 C 550.76 480.26 554.55 480.56 557.91 482.29 L 558.40 482.34 C 558.88 483.65 559.39 484.97 559.86 486.31 L 560.19 486.35 C 560.60 487.86 561.11 489.36 561.75 490.81 C 562.89 492.01 563.56 493.54 564.20 495.06 C 564.80 496.41 565.46 497.74 566.17 499.05 C 567.09 500.96 567.97 502.89 568.94 504.79 C 570.46 506.25 571.09 508.30 571.74 510.26 C 572.41 511.61 573.13 512.96 573.83 514.32 C 573.96 514.41 574.21 514.57 574.34 514.66 C 575.13 516.92 576.05 519.13 576.84 521.40 L 577.73 521.59 C 577.65 522.03 577.49 522.92 577.41 523.37 L 578.73 523.56 C 578.65 524.01 578.50 524.90 578.42 525.34 L 579.25 525.52 C 579.69 526.76 580.20 527.99 580.68 529.23 C 581.25 530.39 581.80 531.56 582.37 532.74 C 582.59 534.03 582.82 535.33 583.06 536.63 C 578.93 536.10 574.79 535.48 570.80 534.30 C 562.91 531.27 554.28 531.35 545.96 531.14 C 502.63 531.13 459.30 531.10 415.98 531.17 C 407.25 530.94 398.73 533.26 390.01 533.12 C 360.00 533.17 329.99 533.10 299.98 533.15 C 276.66 533.82 253.38 535.43 230.13 537.35 C 225.72 537.74 221.47 539.05 217.21 540.15 C 209.14 541.07 201.06 541.57 193.07 543.01 C 171.61 543.32 150.14 543.01 128.68 543.16 C 128.08 542.05 127.49 540.94 126.88 539.84 C 125.24 531.05 126.07 522.08 125.86 513.19 C 126.48 513.22 127.72 513.28 128.35 513.31 C 129.81 512.41 131.27 511.50 132.73 510.59 C 134.90 510.68 137.02 511.17 138.98 512.12 C 144.33 512.85 149.60 513.98 154.81 515.35 C 164.83 516.22 174.90 515.74 184.93 515.87 C 193.65 515.80 202.38 516.07 211.08 515.52 C 225.99 514.05 241.02 515.70 255.92 514.02 C 263.00 514.00 269.97 513.01 276.98 512.20 C 277.66 511.41 278.34 510.63 279.03 509.86 C 284.23 508.45 289.65 508.88 294.95 508.21 C 299.87 506.02 305.40 507.14 310.58 506.27 C 315.37 505.41 320.27 505.13 325.00 503.88 C 331.03 502.24 337.36 503.18 343.48 502.20 C 351.95 500.98 360.51 500.98 369.01 500.26 C 377.61 498.60 386.42 499.11 395.04 497.73 C 405.72 496.71 416.36 495.12 426.85 492.84 C 431.59 492.10 436.38 491.53 441.05 490.35 C 448.24 488.52 455.87 488.66 462.80 485.76 C 463.80 485.43 464.81 485.10 465.81 484.76 C 473.75 482.93 481.90 482.21 489.87 480.51 Z" />
</svg>
